{"title":"Warcraft 2016 720p HDTC x264 AC3 TiTAN","uid":14852591,"size":2922939792,"categoryP":"video","categoryS":"movies","magnet":"?xt=urn:btih:697f72077de9ba20075e1c8ec3e011cd66683b34&amp;dn=Warcraft+2016+720p+HDTC+x264+AC3+TiTAN&amp;tr=udp%3A%2F%2Ftracker.leechers-paradise.org%3A6969&amp;tr=udp%3A%2F%2Fzer0day.ch%3A1337&amp;tr=udp%3A%2F%2Fopen.demonii.com%3A1337&amp;tr=udp%3A%2F%2Ftracker.coppersurfer.tk%3A6969&amp;tr=udp%3A%2F%2Fexodus.desync.com%3A6969","seeders":2,"leechers":0,"uploader":"makintos13","files":2,"time":1465442647,"description":"screens:\r\n \nhttps://imgmak.com/TlI\r\n \nhttps://imgmak.com/Tlq\r\n \nhttps://imgmak.com/Tlt\r\n \nhttps://imgmak.com/TlF\r\n \nhttps://imgmak.com/Tli\r\n \nhttps://imgmak.com/Tlj\r\n \nhttps://imgmak.com/Tlw\r\n\r\n\r\nSource:Mp$BA\r\n\r\nGeneral\r\n\r\nFormat                                   : Matroska\r\nFormat version                           : Version 2\r\nFile size                                : 2.72 GiB\r\nDuration                                 : 2h 3mn\r\nOverall bit rate mode                    : Variable\r\nOverall bit rate                         : 3 148 Kbps\r\n\r\nVideo\r\nID                                       : 1\r\nFormat                                   : AVC\r\nFormat/Info                              : Advanced Video Codec\r\nFormat profile                           :   \r\nFormat settings, CABAC                   : Yes\r\nFormat settings, ReFrames                : 3 frames\r\nCodec ID                                 : V_MPEG4/ISO/AVC\r\nDuration                                 : 2h 3mn\r\nBit rate mode                            : Variable\r\nBit rate                                 : 2 830 Kbps\r\nMaximum bit rate                         : 40.0 Mbps\r\nWidth                                    : 1 280 pixels\r\nHeight                                   : 526 pixels\r\nDisplay aspect ratio                     : 2.40:1\r\nFrame rate mode                          : Constant\r\nFrame rate                               : 29.970 fps\r\nColor space                              : YUV\r\nChroma subsampling                       : 4:2:0\r\nBit depth                                : 8 bits\r\nScan type                                : Progressive\r\nBits/(Pixel*Frame)                       : 0.140\r\nStream size                              : 2.45 GiB (90%)\r\nForced                                   : No\r\nColor primaries                          : BT.709\r\nTransfer characteristics                 : BT.709\r\nMatrix coefficients                      : BT.709\r\n\r\nAudio\r\nID                                       : 2\r\nFormat                                   : AC-3\r\nFormat/Info                              : Audio Coding 3\r\nMode extension                           : CM (complete main)\r\nFormat settings, Endianness              : Big\r\nCodec ID                                 : A_AC3\r\nDuration                                 : 2h 3mn\r\nBit rate mode                            : Constant\r\nBit rate                                 : 256 Kbps\r\nChannel(s)                               : 2 channels\r\nChannel positions                        : Front: L R\r\nSampling rate                            : 48.0 KHz\r\nBit depth                                : 16 bits\r\nCompression mode                         : Lossy\r\nStream size                              : 227 MiB (8%)\r\nLanguage                                 : English\r\nDefault                                  : Yes","torrent":{"xt":"urn:btih:697f72077de9ba20075e1c8ec3e011cd66683b34","amp;dn":"Warcraft+2016+720p+HDTC+x264+AC3+TiTAN","amp;tr":["udp%3A%2F%2Ftracker.leechers-paradise.org%3A6969","udp%3A%2F%2Fzer0day.ch%3A1337","udp%3A%2F%2Fopen.demonii.com%3A1337","udp%3A%2F%2Ftracker.coppersurfer.tk%3A6969","udp%3A%2F%2Fexodus.desync.com%3A6969"],"infoHash":"697f72077de9ba20075e1c8ec3e011cd66683b34","infoHashBuffer":{"type":"Buffer","data":[105,127,114,7,125,233,186,32,7,94,28,142,195,224,17,205,102,104,59,52]},"announce":[],"urlList":[]}}